<svg xmlns="http://www.w3.org/2000/svg" viewBox="0 0 19.38 23"><g id="Layer_2" data-name="Layer 2"><g id="Layer_1-2" data-name="Layer 1"><path id="Path_23736" data-name="Path 23736" d="M19,17.93a12.71,12.71,0,0,1-1.24,2.22,11.34,11.34,0,0,1-1.59,1.93,3.07,3.07,0,0,1-2.05.9,5.18,5.18,0,0,1-1.89-.45,5.5,5.5,0,0,0-2-.45,5.76,5.76,0,0,0-2.09.45A5.38,5.38,0,0,1,6.26,23a2.88,2.88,0,0,1-2.09-.93,11.37,11.37,0,0,1-1.67-2,13.69,13.69,0,0,1-1.76-3.5A12.89,12.89,0,0,1,0,12.41a7.61,7.61,0,0,1,1-4A5.85,5.85,0,0,1,3.1,6.31a5.62,5.62,0,0,1,2.83-.8A6.66,6.66,0,0,1,8.12,6a6.57,6.57,0,0,0,1.74.51,10.79,10.79,0,0,0,1.93-.6,6.34,6.34,0,0,1,2.62-.47,5.59,5.59,0,0,1,4.36,2.29,5,5,0,0,0-1,8.07,5.27,5.27,0,0,0,1.59,1c-.14.37-.27.73-.41,1.07M14.53.46a4.86,4.86,0,0,1-1.26,3.22A4.28,4.28,0,0,1,9.71,5.44a3.15,3.15,0,0,1,0-.44A5,5,0,0,1,11,1.75,5.28,5.28,0,0,1,12.65.53,4.8,4.8,0,0,1,14.5,0,3.55,3.55,0,0,1,14.53.46Z"/></g></g></svg>