<svg xmlns="http://www.w3.org/2000/svg" viewBox="0 0 13.48 16"><defs><style>.cls-1{fill:none;}</style></defs><g id="Layer_2" data-name="Layer 2"><g id="Layer_1-2" data-name="Layer 1"><rect class="cls-1" width="13.48" height="16"/><path id="Path_23736" data-name="Path 23736" d="M13.2,12.47A10.19,10.19,0,0,1,12.34,14a8,8,0,0,1-1.11,1.34A2.19,2.19,0,0,1,9.8,16a3.5,3.5,0,0,1-1.31-.32,3.85,3.85,0,0,0-1.42-.31,4.11,4.11,0,0,0-1.46.31A3.85,3.85,0,0,1,4.36,16a2.05,2.05,0,0,1-1.46-.64A8.56,8.56,0,0,1,1.74,14,10.1,10.1,0,0,1,.51,11.54,9,9,0,0,1,0,8.63,5.29,5.29,0,0,1,.7,5.86,4.09,4.09,0,0,1,2.15,4.39a3.94,3.94,0,0,1,2-.56,4.5,4.5,0,0,1,1.53.36,4.55,4.55,0,0,0,1.21.35A6.32,6.32,0,0,0,8.2,4.12,4.54,4.54,0,0,1,10,3.8a3.85,3.85,0,0,1,3,1.59,3.52,3.52,0,0,0-1.34,4.77,3.6,3.6,0,0,0,.66.84,3.69,3.69,0,0,0,1.11.73c-.09.26-.18.5-.29.74M10.11.32a3.37,3.37,0,0,1-.88,2.24A3,3,0,0,1,6.75,3.78c0-.1,0-.2,0-.3a3.42,3.42,0,0,1,.93-2.26A3.37,3.37,0,0,1,8.8.37,3.25,3.25,0,0,1,10.09,0C10.1.11,10.11.21,10.11.32Z"/></g></g></svg>