<svg xmlns="http://www.w3.org/2000/svg" viewBox="0 0 17 17"><g id="Layer_2" data-name="Layer 2"><g id="Layer_1-2" data-name="Layer 1"><path d="M7.49,7a2.49,2.49,0,0,1,1.77.73,2.52,2.52,0,0,1,0,3.54l-4,4a2.51,2.51,0,0,1-3.54,0,2.52,2.52,0,0,1,0-3.54l4-4A2.49,2.49,0,0,1,7.49,7m0-1A3.51,3.51,0,0,0,5,7L1,11a3.49,3.49,0,0,0,0,5,3.49,3.49,0,0,0,5,0l4-4A3.5,3.5,0,0,0,7.49,6Z"/><path d="M13.5,1a2.5,2.5,0,0,1,1.77,4.27l-4,4a2.51,2.51,0,0,1-3.54,0,2.52,2.52,0,0,1,0-3.54l4-4A2.49,2.49,0,0,1,13.5,1m0-1A3.48,3.48,0,0,0,11,1L7,5a3.51,3.51,0,0,0,5,5l4-4A3.49,3.49,0,0,0,16,1,3.46,3.46,0,0,0,13.5,0Z"/></g></g></svg>