<svg xmlns="http://www.w3.org/2000/svg" viewBox="0 0 17 17"><g id="Layer_2" data-name="Layer 2"><g id="Layer_1-2" data-name="Layer 1"><polygon points="16 15.29 10.35 9.65 9.65 10.35 15.29 16 11 16 11 17 17 17 17 11 16 11 16 15.29"/><polygon points="11 0 11 1 15.29 1 9.65 6.65 10.35 7.35 16 1.71 16 6 17 6 17 0 11 0"/><polygon points="6.65 9.65 1 15.29 1 11 0 11 0 17 6 17 6 16 1.71 16 7.35 10.35 6.65 9.65"/><polygon points="6 1 6 0 0 0 0 6 1 6 1 1.71 6.65 7.35 7.35 6.65 1.71 1 6 1"/></g></g></svg>