<svg xmlns="http://www.w3.org/2000/svg" viewBox="0 0 18.63 23"><defs><style>.cls-1{fill:none;}</style></defs><g id="Layer_2" data-name="Layer 2"><g id="Layer_1-2" data-name="Layer 1"><rect class="cls-1" width="18.63" height="23"/><path d="M18.63,13.71h0a8.41,8.41,0,0,0-.2-1.94H9.5v3.52h5.24a4.63,4.63,0,0,1-1.94,3.08h0a5.58,5.58,0,0,1-3.29.95,5.7,5.7,0,0,1-5.4-3.94h0a5.76,5.76,0,0,1-.32-1.88,6.33,6.33,0,0,1,.31-1.88h0A5.75,5.75,0,0,1,9.5,7.67h0a5.25,5.25,0,0,1,3.67,1.42l2.68-2.62A9.12,9.12,0,0,0,9.5,4,9.48,9.48,0,0,0,1,9.23H1a9.49,9.49,0,0,0,0,8.53H1A9.49,9.49,0,0,0,9.51,23h0a9,9,0,0,0,6.29-2.29h0A9.29,9.29,0,0,0,18.63,13.71ZM4.1,15.38Z"/></g></g></svg>