<svg xmlns="http://www.w3.org/2000/svg" viewBox="0 0 12.75 16"><defs><style>.cls-1{fill:none;}</style></defs><g id="Layer_2" data-name="Layer 2"><g id="Layer_1-2" data-name="Layer 1"><rect class="cls-1" x="0.01" width="12.74" height="16"/><path d="M12.74,9.64h0a5.34,5.34,0,0,0-.14-1.32H6.5v2.41h3.58a3.11,3.11,0,0,1-1.33,2.1h0a4,4,0,0,1-5.94-2.06h0A4,4,0,0,1,2.59,9.5,4.05,4.05,0,0,1,2.8,8.21h0a3.94,3.94,0,0,1,3.7-2.7h0A3.64,3.64,0,0,1,9,6.48l1.84-1.79A6.28,6.28,0,0,0,6.5,3,6.5,6.5,0,0,0,.7,6.58h0a6.52,6.52,0,0,0,0,5.84h0A6.5,6.5,0,0,0,6.5,16h0a6.2,6.2,0,0,0,4.3-1.58h0A6.33,6.33,0,0,0,12.74,9.64ZM2.8,10.78Z"/></g></g></svg>